<svg width="89" height="44" viewBox="0 0 89 44" fill="none" xmlns="http://www.w3.org/2000/svg">
<g clip-path="url(#clip0_288_165)">
<path d="M38.5194 34.658H40.039V40.8868H38.5194L38.45 40.1154C38.2785 40.3934 38.0539 40.6181 37.7736 40.7918C37.4933 40.9632 37.162 41.0512 36.7798 41.0512C36.3189 41.0512 35.888 40.9632 35.485 40.7895C35.0819 40.6158 34.7275 40.3749 34.4217 40.0668C34.116 39.7587 33.8774 39.4043 33.706 39.0012C33.5346 38.5982 33.4465 38.1673 33.4465 37.7064C33.4465 37.2454 33.5276 36.8447 33.6921 36.4532C33.8565 36.064 34.0859 35.7212 34.38 35.4247C34.6742 35.1282 35.0147 34.8989 35.4016 34.7344C35.7884 34.5676 36.2031 34.4843 36.6478 34.4843C37.0578 34.4843 37.4284 34.5746 37.7527 34.7576C38.0793 34.9406 38.355 35.1722 38.5843 35.4548L38.5148 34.658H38.5194ZM36.7451 39.585C37.0694 39.585 37.3566 39.5039 37.6045 39.3417C37.8546 39.1796 38.0492 38.9619 38.1905 38.6839C38.3318 38.4082 38.4013 38.1025 38.4013 37.7712C38.4013 37.44 38.3295 37.1296 38.1905 36.8516C38.0492 36.576 37.8523 36.3559 37.6022 36.1938C37.352 36.0316 37.0648 35.9505 36.7451 35.9505C36.4254 35.9505 36.1336 36.0316 35.8695 36.1961C35.6054 36.3605 35.3969 36.5783 35.2394 36.8539C35.0842 37.1273 35.0055 37.433 35.0055 37.7689C35.0055 38.1048 35.0842 38.4105 35.2417 38.6839C35.3993 38.9572 35.61 39.175 35.8741 39.3371C36.1382 39.4993 36.4277 39.5803 36.7428 39.5803L36.7451 39.585Z" fill="#101D2D"/>
<path d="M42.8072 44H41.2876V34.6557H42.8072V35.4479C43.011 35.1653 43.2612 34.936 43.5577 34.7599C43.8542 34.5839 44.2016 34.4958 44.6 34.4958C45.0564 34.4958 45.4826 34.5816 45.8764 34.7507C46.2702 34.9221 46.6176 35.156 46.9188 35.4572C47.2199 35.7583 47.4538 36.1057 47.6229 36.4995C47.792 36.8933 47.8754 37.3172 47.8754 37.7712C47.8754 38.2253 47.792 38.6492 47.6229 39.0476C47.4538 39.446 47.2199 39.7958 46.9188 40.0969C46.6176 40.398 46.2702 40.6343 45.8764 40.8034C45.4826 40.9725 45.0564 41.0582 44.6 41.0582C44.2016 41.0582 43.8542 40.9702 43.5577 40.7941C43.2612 40.6181 43.011 40.3888 42.8072 40.1062V44ZM44.5815 35.9575C44.2665 35.9575 43.9839 36.0386 43.7337 36.203C43.4835 36.3675 43.289 36.5852 43.1477 36.8609C43.0064 37.1342 42.9369 37.4377 42.9369 37.7712C42.9369 38.1048 43.0064 38.4082 43.1477 38.6839C43.289 38.9596 43.4835 39.1796 43.7337 39.3441C43.9839 39.5085 44.2642 39.5896 44.5815 39.5896C44.8989 39.5896 45.193 39.5085 45.4594 39.3464C45.7258 39.1842 45.9366 38.9665 46.0941 38.6885C46.2516 38.4129 46.3304 38.1071 46.3304 37.7689C46.3304 37.4307 46.2516 37.1342 46.0941 36.8586C45.9366 36.5829 45.7258 36.3652 45.4617 36.2007C45.1977 36.0363 44.9035 35.9552 44.5815 35.9552V35.9575Z" fill="#101D2D"/>
<path d="M50.3748 44H48.8552V34.6557H50.3748V35.4479C50.5786 35.1653 50.8288 34.936 51.1253 34.7599C51.4218 34.5839 51.7693 34.4958 52.1677 34.4958C52.624 34.4958 53.0502 34.5816 53.444 34.7507C53.8378 34.9221 54.1853 35.156 54.4864 35.4572C54.7875 35.7583 55.0215 36.1057 55.1906 36.4995C55.3597 36.8933 55.4431 37.3172 55.4431 37.7712C55.4431 38.2253 55.3597 38.6492 55.1906 39.0476C55.0215 39.446 54.7875 39.7958 54.4864 40.0969C54.1853 40.398 53.8378 40.6343 53.444 40.8034C53.0502 40.9725 52.624 41.0582 52.1677 41.0582C51.7693 41.0582 51.4218 40.9702 51.1253 40.7941C50.8288 40.6181 50.5786 40.3888 50.3748 40.1062V44ZM52.1491 35.9575C51.8341 35.9575 51.5515 36.0386 51.3013 36.203C51.0512 36.3675 50.8566 36.5852 50.7153 36.8609C50.574 37.1342 50.5045 37.4377 50.5045 37.7712C50.5045 38.1048 50.574 38.4082 50.7153 38.6839C50.8566 38.9596 51.0512 39.1796 51.3013 39.3441C51.5515 39.5085 51.8318 39.5896 52.1491 39.5896C52.4665 39.5896 52.7607 39.5085 53.0271 39.3464C53.2934 39.1842 53.5042 38.9665 53.6618 38.6885C53.8193 38.4129 53.898 38.1071 53.898 37.7689C53.898 37.4307 53.8193 37.1342 53.6618 36.8586C53.5042 36.5852 53.2934 36.3652 53.0294 36.2007C52.7653 36.0363 52.4711 35.9552 52.1491 35.9552V35.9575Z" fill="#101D2D"/>
<path d="M0.667067 8.99921C0.518817 15.1307 5.87896 17.9961 11.8831 19.3605C12.4668 19.4832 13.6065 19.7427 14.7415 20.1017C15.1978 20.2453 15.6519 20.4075 16.0711 20.5812C16.1823 20.6275 16.2912 20.6762 16.3954 20.7248C16.7591 20.8916 17.2455 21.1093 17.644 21.429C17.8316 21.5888 18.0053 21.7579 18.1605 21.9386C19.1288 23.0482 19.5295 24.526 19.5295 26.1637C19.5295 28.0076 18.6168 29.7009 17.3405 30.8405H17.454C18.7975 30.8405 20.0692 30.544 21.2112 30.0113C21.2344 29.9997 21.2599 29.9881 21.283 29.9765C21.8019 29.7217 22.374 29.3882 22.9392 28.948C22.9485 28.9411 22.9555 28.9341 22.9647 28.9272C23.6226 28.4129 24.2735 27.7551 24.8294 26.9212C24.8294 26.9212 26.3698 24.8642 26.3559 22.0081V21.8089C25.976 12.6221 14.1995 11.5009 11.48 10.5836C11.3225 10.5303 11.1465 10.4493 10.9635 10.3543C9.57594 9.62 8.74435 8.14909 8.79299 6.58089C8.86017 4.34093 9.87012 1.24159 14.6234 0.104235C14.6326 0.101918 14.6442 0.0996018 14.6535 0.0972854L15.1121 -3.36225e-06H9.30955C9.30955 -3.36225e-06 0.891758 -0.224694 0.667067 8.99921Z" fill="#101D2D"/>
<path opacity="0.7" d="M0.667181 9.21927C0.646333 11.5079 1.37832 13.3401 2.96737 15.052C3.01601 13.1873 4.0028 11.45 5.37179 10.3103C6.48134 9.38605 7.88971 8.89729 9.33283 8.89729H22.5803C25.038 8.89729 27.0301 6.90519 27.0301 4.44749C27.0301 1.9921 25.045 0.134351 22.5826 0L9.20311 0.0185312C3.69935 0.280284 0.694978 3.96567 0.676446 8.86254L0.669497 9.21927H0.667181Z" fill="#2166E5"/>
<path d="M37.7805 19.5643C37.7805 17.1618 35.8328 15.2141 33.4303 15.2141C31.0277 15.2141 29.0801 17.1618 29.0801 19.5643V26.2633C29.0801 28.6659 31.0277 30.6135 33.4303 30.6135C35.8328 30.6135 37.7805 28.6659 37.7805 26.2633V19.5643Z" fill="#101D2D"/>
<path opacity="0.7" d="M33.3283 15.2512C30.3078 15.2512 28.2462 18.2996 29.3604 21.107C31.6188 26.7984 37.1574 30.6877 43.6757 30.6877C52.2209 30.6877 59.0774 24.0025 59.0774 15.3438C59.0774 6.68513 52.2209 0 43.6757 0C43.6456 0 43.6155 0 43.5854 0C39.7239 0.0208476 37.8291 4.72545 40.5578 7.45417C41.2829 8.1792 42.2835 8.54288 43.3074 8.49424C43.4302 8.48729 43.5529 8.48497 43.6757 8.48497C47.4561 8.48497 50.3608 11.216 50.3608 15.3438C50.3608 19.4716 47.4561 22.2027 43.6757 22.2027C40.8427 22.2027 38.5426 20.6136 37.5697 18.0772C36.9234 16.3955 35.3506 15.2512 33.5484 15.2512H33.3283Z" fill="#2166E5"/>
<path d="M30.7188 5.94197L30.6762 5.98455C29.2533 7.40751 29.2533 9.71457 30.6762 11.1375L30.8547 11.3161C32.2777 12.739 34.5848 12.739 36.0077 11.3161L36.0503 11.2735C37.4733 9.85051 37.4733 7.54345 36.0503 6.1205L35.8718 5.94197C34.4488 4.51902 32.1418 4.51901 30.7188 5.94197Z" fill="#101D2D"/>
<path opacity="0.7" d="M26.3537 21.8252V21.9572C26.349 24.7855 25.0264 27.3034 22.9671 28.9296C22.9578 28.9365 22.9509 28.9435 22.9416 28.9504C22.9046 28.9782 22.8675 29.0083 22.8304 29.0361C22.3509 29.3998 21.8344 29.7171 21.2854 29.9789C21.2622 29.9905 21.2368 30.0021 21.2136 30.0136C20.0716 30.5464 18.7999 30.8429 17.4564 30.8429H4.44981C3.22211 30.8429 2.10793 30.3449 1.30414 29.5388C0.500345 28.7327 0.00231934 27.6208 0.00231934 26.3931C0.00231934 23.9354 1.99442 21.9433 4.45212 21.9433H18.1003C18.1235 21.9433 18.1444 21.941 18.1675 21.9387C21.3201 21.707 23.8172 19.1196 23.9006 15.9276C25.2951 17.3962 26.2541 19.3072 26.3583 21.8252H26.3537Z" fill="#2166E5"/>
<path d="M61.6603 8.99922C61.512 15.1307 66.8722 17.9961 72.8763 19.3605C73.46 19.4832 74.5997 19.7427 75.7347 20.1017C76.191 20.2453 76.6451 20.4075 77.0643 20.5812C77.1755 20.6275 77.2844 20.6762 77.3886 20.7248C77.7523 20.8916 78.2387 21.1094 78.6372 21.429C78.8248 21.5889 78.9985 21.7579 79.1537 21.9386C80.122 23.0482 80.5227 24.526 80.5227 26.1637C80.5227 28.0076 79.61 29.7009 78.3337 30.8405H78.4472C79.7907 30.8405 81.0624 30.544 82.2044 30.0113C82.2276 29.9997 82.2531 29.9881 82.2762 29.9765C82.7951 29.7217 83.3672 29.3882 83.9324 28.9481C83.9417 28.9411 83.9487 28.9342 83.9579 28.9272C84.6158 28.413 85.2667 27.7551 85.8226 26.9212C85.8226 26.9212 87.363 24.8642 87.3491 22.0081V21.8089C86.9692 12.6221 75.1927 11.5009 72.4732 10.5836C72.3157 10.5304 72.1397 10.4493 71.9567 10.3543C70.5691 9.62002 69.7375 8.1491 69.7862 6.5809C69.8534 4.34094 70.8633 1.2416 75.6166 0.104249C75.6258 0.101933 75.6374 0.0996165 75.6467 0.0973001L76.0984 1.13092e-05H70.2958C70.2958 1.13092e-05 61.8757 -0.226996 61.6533 8.99691L61.6603 8.99922Z" fill="#101D2D"/>
<path opacity="0.7" d="M61.6602 9.21926C61.6394 11.5079 62.3714 13.3401 63.9604 15.052C64.009 13.1873 64.9958 11.45 66.3648 10.3103C67.4744 9.38605 68.8828 8.89729 70.3259 8.89729H83.5734C86.0311 8.89729 88.0232 6.90518 88.0232 4.44748C88.0232 1.98978 86.038 0.132032 83.5734 -0.00231934L70.1938 0.0162119C64.6901 0.277965 61.6857 3.96336 61.6672 8.86022L61.6602 9.21695V9.21926Z" fill="#2166E5"/>
<path opacity="0.7" d="M87.3468 21.8252V21.9572C87.3422 24.7855 86.0195 27.3034 83.9603 28.9296C83.951 28.9365 83.9441 28.9435 83.9348 28.9504C83.8977 28.9782 83.8607 29.0083 83.8236 29.0361C83.3441 29.3998 82.8275 29.7171 82.2786 29.9789C82.2554 29.9905 82.2299 30.0021 82.2068 30.0136C81.0648 30.5464 79.7931 30.8429 78.4496 30.8429H65.4407C64.213 30.8429 63.0988 30.3449 62.295 29.5388C61.4912 28.7327 60.9932 27.6208 60.9932 26.3931C60.9932 23.9354 62.9853 21.9433 65.443 21.9433H79.0912C79.1144 21.9433 79.1352 21.941 79.1584 21.9387C82.311 21.707 84.8081 19.1196 84.8915 15.9276C86.2859 17.3962 87.2449 19.3072 87.3492 21.8252H87.3468Z" fill="#2166E5"/>
</g>
<defs>
<clipPath id="clip0_288_165">
<rect width="88.0232" height="44" fill="white"/>
</clipPath>
</defs>
</svg>
